# xmcd
#
# Track frame offsets: 
#        150
#        9478
#        19295
#        36004
#        50310
#        61923
#        77814
#        92135
#        108675
#        122850
#        135265
#        144427
#        158222
#        173924
#
# Disc length: 2440 seconds
#
# Revision: 0
# Processed by: cddbd v1.5.2PL0 Copyright (c) Steve Scherf et al.
# Submitted via: ExactAudioCopy v1.3
#
DISCID=b409860e
DTITLE=Cowboy Joe - Trail Jazz (2015)
DYEAR=2015
DGENRE=Western Swing
TTITLE0=Cowboy Joe's Good Medicine Show
TTITLE1=Please Don't Leave Me Anymore
TTITLE2=By My Side
TTITLE3=San Antonio Rose
TTITLE4=No Way To Go But Down
TTITLE5=Smoky Clubs and Dizzy People
TTITLE6=I Know That She Loves Me (In A Hateful Kind of Way)
TTITLE7=One More Memory To Go
TTITLE8=She Got Religion ( I Got Too Old To Sin)
TTITLE9=I Think I Fell In Love Again Tonight
TTITLE10=Everything's Gotta Swing In Texas
TTITLE11=A Little Sentimental
TTITLE12=The Stratocaster Song
TTITLE13=Reprise
EXTD=
EXTT0=
EXTT1=
EXTT2=
EXTT3=
EXTT4=
EXTT5=
EXTT6=
EXTT7=
EXTT8=
EXTT9=
EXTT10=
EXTT11=
EXTT12=
EXTT13=
PLAYORDER=
